<?xml version="1.0" encoding="iso-8859-1"?>
<!-- Generator: Adobe Illustrator 18.1.1, SVG Export Plug-In . SVG Version: 6.00 Build 0)  -->
<svg version="1.1" id="Capa_1" xmlns="http://www.w3.org/2000/svg" xmlns:xlink="http://www.w3.org/1999/xlink" width="40px" height="40px"
	 viewBox="0 0 41.52 41.52" style="enable-background:new 0 0 41.52 41.52;" xml:space="preserve">
<g>
	<path style="fill:#010002;" d="M37.364,0H0.937C0.592,0,0.312,0.28,0.312,0.625v37.777c0,0.127,0.047,0.237,0.112,0.336
		l-0.017,0.018l2.578,2.581c0.118,0.117,0.275,0.183,0.442,0.183h37.156c0.345,0,0.625-0.28,0.625-0.625V4.985
		c0-0.345-0.28-0.625-0.625-0.625H37.99V0.626C37.989,0.28,37.709,0,37.364,0z M15.883,1.25h6.845v15.366l-3.153-2.324
		c-0.22-0.164-0.54-0.161-0.754,0.008l-2.938,2.277V1.25z M1.562,1.25h13.072v16.604c0,0.237,0.137,0.457,0.351,0.562
		c0.086,0.041,0.181,0.062,0.274,0.062c0.139,0,0.275-0.047,0.383-0.132l3.572-2.768l3.769,2.778
		c0.187,0.139,0.448,0.156,0.652,0.055c0.209-0.104,0.344-0.323,0.344-0.558V1.25H36.74v36.527H1.562V1.25z M39.957,5.609v34.66
		H3.685l-1.241-1.242h34.919c0.345,0,0.625-0.28,0.625-0.625V5.609H39.957z"/>
</g>
<g>
</g>
<g>
</g>
<g>
</g>
<g>
</g>
<g>
</g>
<g>
</g>
<g>
</g>
<g>
</g>
<g>
</g>
<g>
</g>
<g>
</g>
<g>
</g>
<g>
</g>
<g>
</g>
<g>
</g>
</svg>
