<svg xmlns="http://www.w3.org/2000/svg" xmlns:xlink="http://www.w3.org/1999/xlink" width="500" zoomAndPan="magnify" viewBox="0 0 375 374.999991" height="500" preserveAspectRatio="xMidYMid meet" version="1.0"><defs><g/><clipPath id="82ca6aa9b6"><path d="M 54.210938 54.210938 L 320.460938 54.210938 L 320.460938 320.460938 L 54.210938 320.460938 Z M 54.210938 54.210938 " clip-rule="nonzero"/></clipPath><clipPath id="20b8e77ac5"><path d="M 57.78125 57.78125 L 317.28125 57.78125 L 317.28125 317.28125 L 57.78125 317.28125 Z M 57.78125 57.78125 " clip-rule="nonzero"/></clipPath><clipPath id="6cabf407ec"><path d="M 64.613281 64.613281 L 310.613281 64.613281 L 310.613281 310.613281 L 64.613281 310.613281 Z M 64.613281 64.613281 " clip-rule="nonzero"/></clipPath><clipPath id="d1db7af613"><path d="M 61.203125 175.007812 L 313.953125 175.007812 L 313.953125 199.757812 L 61.203125 199.757812 Z M 61.203125 175.007812 " clip-rule="nonzero"/></clipPath><clipPath id="9dd0203a41"><path d="M 108.347656 108.347656 L 266.597656 108.347656 L 266.597656 266.597656 L 108.347656 266.597656 Z M 108.347656 108.347656 " clip-rule="nonzero"/></clipPath><clipPath id="d9cda8f6a4"><path d="M 114.1875 114.1875 L 260.4375 114.1875 L 260.4375 260.4375 L 114.1875 260.4375 Z M 114.1875 114.1875 " clip-rule="nonzero"/></clipPath><clipPath id="a2e6bfe53c"><path d="M 190 120.777344 L 199 120.777344 L 199 254.277344 L 190 254.277344 Z M 190 120.777344 " clip-rule="nonzero"/></clipPath><clipPath id="a1475456d2"><path d="M 176 120.777344 L 185 120.777344 L 185 254.277344 L 176 254.277344 Z M 176 120.777344 " clip-rule="nonzero"/></clipPath><clipPath id="7f415ab752"><path d="M 129.394531 130.496094 L 245.578125 130.496094 L 245.578125 260.039062 L 129.394531 260.039062 Z M 129.394531 130.496094 " clip-rule="nonzero"/></clipPath><clipPath id="bdc944df6e"><path d="M 163.863281 265.167969 L 211.113281 265.167969 L 211.113281 312.417969 L 163.863281 312.417969 Z M 163.863281 265.167969 " clip-rule="nonzero"/></clipPath><clipPath id="84863d0b6e"><path d="M 169.144531 270.449219 L 205.894531 270.449219 L 205.894531 307.199219 L 169.144531 307.199219 Z M 169.144531 270.449219 " clip-rule="nonzero"/></clipPath><clipPath id="bc5a39180b"><path d="M 136.070312 137.148438 L 238.820312 137.148438 L 238.820312 248.898438 L 136.070312 248.898438 Z M 136.070312 137.148438 " clip-rule="nonzero"/></clipPath><clipPath id="ef36243c1d"><path d="M 278.667969 210.09375 L 292.167969 210.09375 L 292.167969 222.84375 L 278.667969 222.84375 Z M 278.667969 210.09375 " clip-rule="nonzero"/></clipPath><clipPath id="6aef772c66"><path d="M 82.75 210.09375 L 96.25 210.09375 L 96.25 222.84375 L 82.75 222.84375 Z M 82.75 210.09375 " clip-rule="nonzero"/></clipPath><clipPath id="41eebb3389"><path d="M 268.878906 229.171875 L 282.378906 229.171875 L 282.378906 241.921875 L 268.878906 241.921875 Z M 268.878906 229.171875 " clip-rule="nonzero"/></clipPath><clipPath id="b67bcea859"><path d="M 92.539062 229.171875 L 106.039062 229.171875 L 106.039062 241.921875 L 92.539062 241.921875 Z M 92.539062 229.171875 " clip-rule="nonzero"/></clipPath><clipPath id="5c074d4e85"><path d="M 255.847656 246.179688 L 269.347656 246.179688 L 269.347656 258.929688 L 255.847656 258.929688 Z M 255.847656 246.179688 " clip-rule="nonzero"/></clipPath><clipPath id="db0cb31286"><path d="M 105.574219 246.179688 L 119.074219 246.179688 L 119.074219 258.929688 L 105.574219 258.929688 Z M 105.574219 246.179688 " clip-rule="nonzero"/></clipPath><clipPath id="ae96df8556"><path d="M 239.953125 261.324219 L 253.453125 261.324219 L 253.453125 274.074219 L 239.953125 274.074219 Z M 239.953125 261.324219 " clip-rule="nonzero"/></clipPath><clipPath id="7d4971407e"><path d="M 121.464844 261.324219 L 134.964844 261.324219 L 134.964844 274.074219 L 121.464844 274.074219 Z M 121.464844 261.324219 " clip-rule="nonzero"/></clipPath><clipPath id="ff74724cc0"><path d="M 222.347656 275.902344 L 235.847656 275.902344 L 235.847656 288.652344 L 222.347656 288.652344 Z M 222.347656 275.902344 " clip-rule="nonzero"/></clipPath><clipPath id="fb0f411efe"><path d="M 139.070312 275.902344 L 152.570312 275.902344 L 152.570312 288.652344 L 139.070312 288.652344 Z M 139.070312 275.902344 " clip-rule="nonzero"/></clipPath></defs><rect x="-37.5" width="450" fill="#ffffff" y="-37.499999" height="449.999989" fill-opacity="1"/><rect x="-37.5" width="450" fill="#103a58" y="-37.499999" height="449.999989" fill-opacity="1"/><g clip-path="url(#82ca6aa9b6)"><path fill="#0b7abe" d="M 187.335938 54.210938 C 113.8125 54.210938 54.210938 113.8125 54.210938 187.335938 C 54.210938 260.859375 113.8125 320.460938 187.335938 320.460938 C 260.859375 320.460938 320.460938 260.859375 320.460938 187.335938 C 320.460938 113.8125 260.859375 54.210938 187.335938 54.210938 " fill-opacity="1" fill-rule="nonzero"/></g><g clip-path="url(#20b8e77ac5)"><path fill="#103a58" d="M 187.53125 57.78125 C 115.871094 57.78125 57.78125 115.871094 57.78125 187.53125 C 57.78125 259.1875 115.871094 317.28125 187.53125 317.28125 C 259.1875 317.28125 317.28125 259.1875 317.28125 187.53125 C 317.28125 115.871094 259.1875 57.78125 187.53125 57.78125 " fill-opacity="1" fill-rule="nonzero"/></g><g clip-path="url(#6cabf407ec)"><path fill="#ffffff" d="M 187.613281 64.613281 C 119.679688 64.613281 64.613281 119.679688 64.613281 187.613281 C 64.613281 255.542969 119.679688 310.613281 187.613281 310.613281 C 255.542969 310.613281 310.613281 255.542969 310.613281 187.613281 C 310.613281 119.679688 255.542969 64.613281 187.613281 64.613281 " fill-opacity="1" fill-rule="nonzero"/></g><g clip-path="url(#d1db7af613)"><path fill="#103a58" d="M 61.210938 175.007812 L 313.941406 175.007812 L 313.941406 199.757812 L 61.210938 199.757812 L 61.210938 175.007812 " fill-opacity="1" fill-rule="nonzero"/></g><g clip-path="url(#9dd0203a41)"><path fill="#103a58" d="M 187.472656 108.347656 C 143.773438 108.347656 108.347656 143.773438 108.347656 187.472656 C 108.347656 231.171875 143.773438 266.597656 187.472656 266.597656 C 231.171875 266.597656 266.597656 231.171875 266.597656 187.472656 C 266.597656 143.773438 231.171875 108.347656 187.472656 108.347656 " fill-opacity="1" fill-rule="nonzero"/></g><g clip-path="url(#d9cda8f6a4)"><path fill="#ffffff" d="M 187.3125 114.1875 C 146.929688 114.1875 114.1875 146.929688 114.1875 187.3125 C 114.1875 227.699219 146.929688 260.4375 187.3125 260.4375 C 227.699219 260.4375 260.4375 227.699219 260.4375 187.3125 C 260.4375 146.929688 227.699219 114.1875 187.3125 114.1875 " fill-opacity="1" fill-rule="nonzero"/></g><path fill="#0b7abe" d="M 218.53125 246.730469 C 221.378906 245.269531 224.109375 243.605469 226.714844 241.746094 L 226.714844 133.167969 C 224.125 131.308594 221.417969 129.648438 218.585938 128.183594 Z M 218.53125 246.730469 " fill-opacity="1" fill-rule="nonzero"/><path fill="#0b7abe" d="M 204.539062 252.117188 C 207.304688 251.394531 210.015625 250.5 212.664062 249.429688 L 212.664062 125.539062 C 210.015625 124.46875 207.304688 123.574219 204.539062 122.851562 Z M 204.539062 252.117188 " fill-opacity="1" fill-rule="nonzero"/><g clip-path="url(#a2e6bfe53c)"><path fill="#0b7abe" d="M 190.546875 254.203125 C 193.273438 254.078125 195.980469 253.792969 198.671875 253.355469 L 198.671875 121.558594 C 195.980469 121.09375 193.273438 120.789062 190.546875 120.640625 Z M 190.546875 254.203125 " fill-opacity="1" fill-rule="nonzero"/></g><path fill="#0b7abe" d="M 246.515625 219.363281 C 247.84375 216.921875 249.015625 214.410156 250.03125 211.828125 C 251.046875 209.242188 251.898438 206.605469 252.582031 203.917969 C 253.269531 201.226562 253.785156 198.503906 254.128906 195.75 C 254.476562 192.996094 254.648438 190.230469 254.648438 187.457031 C 254.648438 184.679688 254.476562 181.917969 254.128906 179.164062 C 253.785156 176.410156 253.269531 173.6875 252.582031 170.996094 C 251.898438 168.308594 251.046875 165.667969 250.03125 163.085938 C 249.015625 160.5 247.84375 157.988281 246.515625 155.550781 Z M 246.515625 219.363281 " fill-opacity="1" fill-rule="nonzero"/><path fill="#0b7abe" d="M 142.707031 237.054688 L 142.707031 137.859375 C 139.730469 140.539062 137.011719 143.457031 134.550781 146.613281 L 134.550781 228.300781 C 137.011719 231.457031 139.730469 234.375 142.707031 237.054688 Z M 142.707031 237.054688 " fill-opacity="1" fill-rule="nonzero"/><path fill="#0b7abe" d="M 232.523438 237.054688 C 235.5 234.375 238.21875 231.457031 240.675781 228.300781 L 240.675781 146.613281 C 238.226562 143.457031 235.515625 140.539062 232.550781 137.859375 Z M 232.523438 237.054688 " fill-opacity="1" fill-rule="nonzero"/><path fill="#0b7abe" d="M 128.714844 219.363281 L 128.714844 155.550781 C 127.382812 157.988281 126.210938 160.5 125.195312 163.085938 C 124.179688 165.667969 123.332031 168.308594 122.644531 170.996094 C 121.957031 173.6875 121.441406 176.410156 121.097656 179.164062 C 120.75 181.917969 120.578125 184.679688 120.578125 187.457031 C 120.578125 190.230469 120.75 192.996094 121.097656 195.75 C 121.441406 198.503906 121.957031 201.226562 122.644531 203.917969 C 123.332031 206.605469 124.179688 209.242188 125.195312 211.828125 C 126.210938 214.410156 127.382812 216.921875 128.714844 219.363281 Z M 128.714844 219.363281 " fill-opacity="1" fill-rule="nonzero"/><path fill="#0b7abe" d="M 148.515625 241.746094 C 151.101562 243.605469 153.8125 245.265625 156.640625 246.730469 L 156.640625 128.183594 C 153.8125 129.648438 151.101562 131.308594 148.515625 133.167969 Z M 148.515625 241.746094 " fill-opacity="1" fill-rule="nonzero"/><g clip-path="url(#a1475456d2)"><path fill="#0b7abe" d="M 176.554688 253.355469 C 179.246094 253.792969 181.957031 254.078125 184.683594 254.203125 L 184.683594 120.640625 C 181.957031 120.765625 179.246094 121.050781 176.554688 121.488281 Z M 176.554688 253.355469 " fill-opacity="1" fill-rule="nonzero"/></g><path fill="#0b7abe" d="M 162.5625 249.429688 C 165.214844 250.5 167.921875 251.394531 170.691406 252.117188 L 170.691406 122.796875 C 167.921875 123.519531 165.214844 124.414062 162.5625 125.484375 Z M 162.5625 249.429688 " fill-opacity="1" fill-rule="nonzero"/><g clip-path="url(#7f415ab752)"><path fill="#ffffff" d="M 239.078125 139.097656 C 205.632812 127.625 169.324219 127.625 135.886719 139.097656 C 131.707031 140.53125 129.039062 144.628906 129.433594 149.035156 L 131.777344 178.976562 C 134.109375 209.304688 150.484375 236.800781 176.035156 253.292969 L 185.660156 259.5 C 186.769531 260.214844 188.191406 260.214844 189.296875 259.5 L 198.921875 253.292969 C 224.480469 236.800781 240.855469 209.304688 243.1875 178.976562 L 245.53125 149.035156 C 245.917969 144.628906 243.257812 140.53125 239.078125 139.097656 " fill-opacity="1" fill-rule="nonzero"/></g><g clip-path="url(#bdc944df6e)"><path fill="#103a58" d="M 187.488281 265.167969 C 174.441406 265.167969 163.863281 275.746094 163.863281 288.792969 C 163.863281 301.839844 174.441406 312.417969 187.488281 312.417969 C 200.535156 312.417969 211.113281 301.839844 211.113281 288.792969 C 211.113281 275.746094 200.535156 265.167969 187.488281 265.167969 " fill-opacity="1" fill-rule="nonzero"/></g><g clip-path="url(#84863d0b6e)"><path fill="#ffffff" d="M 205.890625 288.828125 C 205.890625 298.976562 197.664062 307.199219 187.519531 307.199219 C 177.371094 307.199219 169.144531 298.976562 169.144531 288.828125 C 169.144531 278.679688 177.371094 270.457031 187.519531 270.457031 C 197.664062 270.457031 205.890625 278.679688 205.890625 288.828125 " fill-opacity="1" fill-rule="nonzero"/><path fill="#103a58" d="M 205.363281 291.863281 C 205.148438 291.511719 204.949219 291.121094 204.765625 290.707031 C 204.71875 290.605469 204.675781 290.5 204.632812 290.394531 C 204.589844 290.285156 204.554688 290.1875 204.511719 290.078125 C 204.46875 289.960938 204.425781 289.839844 204.382812 289.722656 C 204.335938 289.59375 204.285156 289.460938 204.230469 289.332031 C 204.121094 289.070312 203.992188 288.804688 203.839844 288.539062 C 203.683594 288.277344 203.5 288.007812 203.257812 287.753906 C 203.136719 287.628906 203.003906 287.507812 202.847656 287.390625 C 202.691406 287.277344 202.511719 287.175781 202.308594 287.097656 C 202.105469 287.019531 201.882812 286.964844 201.640625 286.960938 C 201.515625 286.960938 201.394531 286.96875 201.257812 286.996094 C 201.226562 287.003906 201.191406 287.007812 201.152344 287.019531 C 201.136719 287.023438 201.117188 287.03125 201.09375 287.039062 C 201.085938 287.039062 201.066406 287.046875 201.046875 287.054688 L 201 287.074219 L 200.902344 287.117188 C 200.644531 287.234375 200.382812 287.347656 200.121094 287.472656 C 199.992188 287.53125 199.859375 287.59375 199.726562 287.65625 C 199.597656 287.71875 199.464844 287.78125 199.332031 287.84375 C 199.179688 287.917969 199.027344 287.992188 198.875 288.066406 C 198.5625 287.355469 198.207031 286.648438 197.8125 285.957031 C 197.039062 284.605469 196.125 283.308594 195.085938 282.121094 C 194.992188 282.011719 194.894531 281.90625 194.800781 281.800781 C 194.84375 281.785156 194.886719 281.769531 194.929688 281.75 C 195.058594 281.699219 195.195312 281.65625 195.324219 281.609375 C 195.457031 281.5625 195.589844 281.515625 195.71875 281.472656 C 196.761719 281.121094 197.765625 280.855469 198.695312 280.691406 C 199.625 280.519531 200.480469 280.46875 201.222656 280.457031 C 201.269531 280.457031 201.316406 280.453125 201.363281 280.453125 C 201.410156 280.453125 201.453125 280.449219 201.5 280.453125 C 201.589844 280.453125 201.675781 280.453125 201.761719 280.457031 C 201.804688 280.457031 201.847656 280.457031 201.890625 280.457031 C 201.933594 280.457031 201.976562 280.460938 202.019531 280.460938 C 202.101562 280.464844 202.183594 280.46875 202.261719 280.46875 C 202.578125 280.488281 202.871094 280.507812 203.132812 280.542969 C 203.261719 280.558594 203.382812 280.578125 203.5 280.59375 C 203.558594 280.601562 203.613281 280.613281 203.667969 280.621094 C 203.71875 280.632812 203.773438 280.640625 203.824219 280.648438 C 203.878906 280.664062 203.9375 280.671875 203.992188 280.683594 C 203.660156 280.015625 203.289062 279.367188 202.878906 278.746094 C 202.84375 278.738281 202.808594 278.730469 202.773438 278.722656 C 202.683594 278.703125 202.589844 278.683594 202.496094 278.660156 C 202.117188 278.59375 201.703125 278.53125 201.265625 278.515625 C 201.15625 278.507812 201.042969 278.5 200.929688 278.5 C 200.816406 278.5 200.703125 278.5 200.585938 278.503906 C 200.351562 278.5 200.117188 278.519531 199.871094 278.535156 C 199.75 278.539062 199.625 278.554688 199.503906 278.566406 C 199.378906 278.582031 199.253906 278.59375 199.125 278.605469 C 198.875 278.640625 198.617188 278.675781 198.355469 278.71875 C 197.3125 278.894531 196.207031 279.171875 195.078125 279.546875 C 194.476562 279.746094 193.867188 279.96875 193.253906 280.21875 C 193.042969 280.011719 192.835938 279.808594 192.609375 279.617188 C 192.464844 279.488281 192.320312 279.359375 192.175781 279.230469 L 191.957031 279.039062 C 191.921875 279.007812 191.886719 278.976562 191.847656 278.945312 L 191.734375 278.855469 C 190.957031 278.199219 190.148438 277.597656 189.316406 277.054688 C 189.464844 276.921875 189.613281 276.789062 189.761719 276.660156 C 189.839844 276.585938 189.917969 276.511719 189.996094 276.441406 L 190.054688 276.386719 C 190.074219 276.371094 190.101562 276.34375 190.121094 276.320312 C 190.167969 276.277344 190.214844 276.230469 190.257812 276.183594 C 190.617188 275.816406 190.90625 275.367188 191.0625 274.890625 C 191.222656 274.414062 191.257812 273.929688 191.222656 273.503906 C 191.1875 273.074219 191.082031 272.691406 190.953125 272.355469 C 190.828125 272.023438 190.671875 271.730469 190.519531 271.476562 C 190.441406 271.351562 190.363281 271.234375 190.285156 271.121094 C 190.207031 271.015625 190.132812 270.910156 190.054688 270.816406 C 189.992188 270.742188 189.933594 270.671875 189.875 270.605469 C 189.46875 270.554688 189.054688 270.515625 188.636719 270.492188 C 188.648438 270.503906 188.652344 270.519531 188.664062 270.535156 C 188.777344 270.734375 188.949219 271.03125 189.136719 271.414062 C 189.230469 271.601562 189.328125 271.8125 189.421875 272.042969 C 189.515625 272.273438 189.601562 272.519531 189.671875 272.78125 C 189.742188 273.042969 189.792969 273.316406 189.796875 273.589844 C 189.804688 273.863281 189.765625 274.132812 189.664062 274.386719 C 189.5625 274.636719 189.398438 274.875 189.164062 275.09375 C 189.132812 275.121094 189.105469 275.148438 189.074219 275.175781 C 189.058594 275.191406 189.046875 275.203125 189.027344 275.21875 L 188.964844 275.269531 C 188.886719 275.335938 188.804688 275.40625 188.722656 275.472656 C 188.558594 275.609375 188.394531 275.746094 188.226562 275.886719 C 188.109375 275.984375 187.992188 276.078125 187.875 276.175781 C 187.835938 276.15625 187.800781 276.132812 187.765625 276.113281 C 187.683594 276.074219 187.601562 276.03125 187.519531 275.988281 C 187.355469 275.902344 187.195312 275.816406 187.03125 275.734375 C 186.953125 275.691406 186.871094 275.648438 186.789062 275.609375 C 186.707031 275.574219 186.625 275.535156 186.542969 275.496094 C 186.378906 275.421875 186.214844 275.347656 186.054688 275.273438 C 185.972656 275.238281 185.890625 275.195312 185.808594 275.164062 C 185.726562 275.132812 185.644531 275.097656 185.5625 275.066406 C 185.398438 275 185.234375 274.9375 185.070312 274.871094 C 184.910156 274.804688 184.742188 274.753906 184.582031 274.695312 C 184.417969 274.640625 184.253906 274.585938 184.09375 274.53125 C 184.015625 274.503906 183.933594 274.480469 183.851562 274.457031 C 183.769531 274.433594 183.6875 274.410156 183.605469 274.386719 C 183.445312 274.34375 183.285156 274.296875 183.125 274.253906 C 182.964844 274.214844 182.804688 274.179688 182.644531 274.140625 C 182.484375 274.105469 182.328125 274.066406 182.171875 274.035156 C 182.015625 274.007812 181.855469 273.980469 181.703125 273.953125 C 181.546875 273.925781 181.394531 273.894531 181.238281 273.878906 C 181.085938 273.859375 180.933594 273.839844 180.78125 273.820312 C 180.707031 273.808594 180.632812 273.800781 180.558594 273.792969 C 180.484375 273.785156 180.410156 273.78125 180.335938 273.773438 C 180.039062 273.75 179.75 273.722656 179.464844 273.722656 C 179.324219 273.714844 179.183594 273.710938 179.042969 273.707031 C 178.90625 273.707031 178.765625 273.710938 178.632812 273.710938 C 178.496094 273.714844 178.363281 273.714844 178.230469 273.722656 C 178.101562 273.730469 177.972656 273.738281 177.84375 273.746094 C 177.585938 273.753906 177.339844 273.789062 177.101562 273.8125 C 177.03125 273.816406 176.964844 273.824219 176.898438 273.832031 C 176.367188 274.210938 175.851562 274.621094 175.363281 275.054688 C 175.894531 274.964844 176.507812 274.898438 177.183594 274.867188 C 177.410156 274.863281 177.640625 274.847656 177.878906 274.855469 C 178 274.855469 178.121094 274.859375 178.242188 274.859375 C 178.367188 274.859375 178.488281 274.871094 178.617188 274.875 C 178.742188 274.882812 178.867188 274.886719 178.996094 274.894531 C 179.125 274.90625 179.253906 274.917969 179.386719 274.929688 C 179.652344 274.949219 179.917969 274.988281 180.191406 275.027344 C 180.257812 275.035156 180.328125 275.042969 180.398438 275.054688 C 180.464844 275.066406 180.535156 275.078125 180.605469 275.089844 C 180.742188 275.113281 180.882812 275.140625 181.023438 275.164062 C 181.164062 275.1875 181.304688 275.226562 181.449219 275.257812 C 181.589844 275.289062 181.734375 275.320312 181.878906 275.355469 C 182.023438 275.390625 182.167969 275.433594 182.3125 275.472656 C 182.457031 275.511719 182.605469 275.550781 182.75 275.59375 C 182.898438 275.640625 183.042969 275.691406 183.191406 275.738281 C 183.265625 275.761719 183.339844 275.789062 183.414062 275.8125 C 183.488281 275.835938 183.5625 275.859375 183.636719 275.890625 C 183.785156 275.945312 183.933594 276 184.082031 276.058594 C 184.230469 276.117188 184.382812 276.167969 184.53125 276.238281 C 184.679688 276.300781 184.828125 276.367188 184.980469 276.433594 C 185.054688 276.464844 185.128906 276.5 185.207031 276.53125 C 185.28125 276.5625 185.355469 276.605469 185.429688 276.640625 C 185.578125 276.714844 185.726562 276.785156 185.878906 276.863281 C 185.953125 276.898438 186.027344 276.933594 186.105469 276.972656 C 186.179688 277.011719 186.253906 277.054688 186.328125 277.09375 C 186.402344 277.136719 186.480469 277.179688 186.554688 277.21875 C 186.398438 277.339844 186.242188 277.460938 186.082031 277.578125 C 185.703125 277.859375 185.3125 278.140625 184.914062 278.410156 C 184.515625 278.679688 184.109375 278.941406 183.691406 279.1875 C 182.855469 279.683594 181.972656 280.117188 181.078125 280.40625 C 180.964844 280.441406 180.851562 280.476562 180.738281 280.507812 C 180.628906 280.535156 180.515625 280.570312 180.402344 280.59375 C 180.179688 280.640625 179.953125 280.683594 179.730469 280.707031 L 179.566406 280.722656 C 179.511719 280.730469 179.457031 280.730469 179.402344 280.730469 L 179.234375 280.738281 L 179.074219 280.734375 L 178.960938 280.734375 C 178.957031 280.734375 178.960938 280.734375 178.945312 280.730469 L 178.898438 280.730469 L 178.707031 280.71875 L 178.511719 280.710938 L 178.3125 280.703125 C 177.78125 280.691406 177.265625 280.695312 176.753906 280.71875 C 176.238281 280.746094 175.734375 280.789062 175.238281 280.847656 C 174.25 280.972656 173.300781 281.164062 172.417969 281.421875 C 172.308594 281.457031 172.199219 281.492188 172.089844 281.523438 C 171.980469 281.558594 171.875 281.597656 171.769531 281.632812 C 171.71875 281.652344 171.664062 281.667969 171.613281 281.6875 C 171.558594 281.707031 171.507812 281.726562 171.457031 281.746094 C 171.355469 281.785156 171.25 281.824219 171.148438 281.863281 C 171.050781 281.90625 170.953125 281.949219 170.851562 281.992188 C 170.804688 282.015625 170.753906 282.03125 170.707031 282.054688 C 170.660156 282.078125 170.609375 282.101562 170.5625 282.125 C 170.5 282.15625 170.4375 282.183594 170.375 282.214844 C 170.214844 282.628906 170.070312 283.050781 169.9375 283.476562 C 170.097656 283.375 170.261719 283.28125 170.433594 283.191406 C 170.515625 283.148438 170.597656 283.105469 170.679688 283.066406 C 170.765625 283.023438 170.855469 282.988281 170.941406 282.949219 C 171.113281 282.863281 171.300781 282.800781 171.484375 282.726562 C 171.859375 282.59375 172.253906 282.472656 172.671875 282.378906 C 173.5 282.183594 174.402344 282.074219 175.335938 282.035156 C 175.804688 282.015625 176.28125 282.015625 176.765625 282.03125 C 177.246094 282.042969 177.734375 282.074219 178.21875 282.125 L 178.398438 282.144531 L 178.488281 282.152344 L 178.585938 282.164062 L 178.773438 282.1875 L 178.820312 282.191406 L 178.871094 282.195312 L 178.980469 282.207031 L 179.199219 282.222656 L 179.417969 282.226562 C 179.492188 282.226562 179.566406 282.230469 179.636719 282.226562 L 179.855469 282.21875 C 180.144531 282.203125 180.429688 282.164062 180.710938 282.113281 C 180.851562 282.089844 180.988281 282.054688 181.128906 282.027344 C 181.265625 281.992188 181.398438 281.953125 181.535156 281.917969 C 182.074219 281.761719 182.589844 281.566406 183.082031 281.339844 C 183.578125 281.117188 184.054688 280.867188 184.511719 280.605469 C 184.972656 280.34375 185.414062 280.066406 185.839844 279.78125 C 185.945312 279.707031 186.050781 279.636719 186.15625 279.566406 C 186.261719 279.492188 186.363281 279.421875 186.46875 279.347656 C 186.671875 279.199219 186.875 279.050781 187.070312 278.902344 C 187.269531 278.753906 187.464844 278.605469 187.652344 278.453125 C 187.792969 278.34375 187.925781 278.234375 188.058594 278.125 C 188.074219 278.136719 188.089844 278.148438 188.105469 278.15625 C 188.25 278.257812 188.398438 278.355469 188.542969 278.457031 C 188.617188 278.507812 188.691406 278.558594 188.761719 278.605469 C 188.835938 278.65625 188.910156 278.707031 188.980469 278.761719 C 189.265625 278.976562 189.554688 279.191406 189.84375 279.410156 C 190.121094 279.636719 190.402344 279.871094 190.683594 280.101562 L 190.789062 280.1875 C 190.824219 280.21875 190.859375 280.25 190.894531 280.28125 L 191.097656 280.464844 C 191.234375 280.585938 191.371094 280.710938 191.507812 280.832031 C 191.546875 280.867188 191.585938 280.902344 191.625 280.933594 L 191.621094 280.9375 C 191.550781 280.96875 191.476562 281.003906 191.402344 281.039062 C 191.332031 281.074219 191.257812 281.109375 191.1875 281.144531 C 191.039062 281.21875 190.894531 281.289062 190.75 281.363281 C 190.605469 281.433594 190.457031 281.503906 190.3125 281.582031 C 190.167969 281.660156 190.023438 281.734375 189.875 281.8125 C 189.585938 281.96875 189.292969 282.121094 189 282.289062 C 188.710938 282.457031 188.417969 282.625 188.125 282.792969 C 187.84375 282.960938 187.5625 283.132812 187.28125 283.304688 L 187.066406 283.433594 L 187.015625 283.46875 L 186.988281 283.484375 L 186.949219 283.507812 L 186.84375 283.578125 C 186.699219 283.667969 186.558594 283.761719 186.414062 283.851562 C 185.839844 284.214844 185.285156 284.617188 184.726562 285.003906 C 184.179688 285.414062 183.625 285.816406 183.101562 286.25 C 182.96875 286.355469 182.835938 286.460938 182.703125 286.566406 C 182.570312 286.675781 182.445312 286.789062 182.316406 286.898438 C 182.1875 287.007812 182.058594 287.117188 181.929688 287.226562 L 181.738281 287.390625 C 181.675781 287.445312 181.613281 287.503906 181.550781 287.5625 C 181.300781 287.789062 181.054688 288.011719 180.808594 288.238281 C 180.570312 288.472656 180.332031 288.703125 180.097656 288.933594 C 179.632812 289.402344 179.179688 289.867188 178.753906 290.347656 C 177.894531 291.296875 177.117188 292.261719 176.425781 293.210938 C 176.082031 293.683594 175.757812 294.15625 175.457031 294.617188 C 175.308594 294.851562 175.160156 295.078125 175.023438 295.304688 C 174.886719 295.535156 174.753906 295.761719 174.625 295.984375 C 174.125 296.875 173.71875 297.722656 173.40625 298.492188 C 173.191406 299.015625 173.023438 299.496094 172.882812 299.933594 C 173.0625 300.167969 173.246094 300.398438 173.4375 300.625 C 173.976562 299.617188 174.761719 298.25 175.800781 296.707031 C 176.351562 295.894531 176.964844 295.027344 177.664062 294.152344 C 178.363281 293.277344 179.148438 292.390625 180 291.515625 C 180.851562 290.640625 181.777344 289.78125 182.761719 288.957031 C 182.824219 288.90625 182.882812 288.851562 182.945312 288.800781 L 183.132812 288.652344 C 183.257812 288.550781 183.382812 288.449219 183.511719 288.347656 C 183.636719 288.246094 183.761719 288.144531 183.890625 288.046875 C 184.019531 287.949219 184.148438 287.851562 184.277344 287.753906 C 184.789062 287.355469 185.324219 286.980469 185.855469 286.605469 C 186.125 286.421875 186.398438 286.242188 186.667969 286.0625 L 186.871094 285.925781 C 186.9375 285.878906 187.007812 285.839844 187.078125 285.796875 C 187.214844 285.707031 187.351562 285.621094 187.488281 285.535156 C 187.625 285.449219 187.765625 285.363281 187.902344 285.277344 L 188.003906 285.210938 L 188.015625 285.203125 L 188.046875 285.1875 L 188.097656 285.15625 L 188.3125 285.027344 C 188.597656 284.859375 188.878906 284.691406 189.164062 284.523438 C 189.441406 284.371094 189.71875 284.214844 189.996094 284.0625 C 190.265625 283.902344 190.550781 283.761719 190.828125 283.613281 C 190.964844 283.539062 191.105469 283.464844 191.242188 283.390625 C 191.382812 283.320312 191.519531 283.253906 191.660156 283.183594 C 191.796875 283.117188 191.9375 283.046875 192.074219 282.980469 C 192.144531 282.945312 192.210938 282.914062 192.28125 282.878906 C 192.351562 282.847656 192.417969 282.816406 192.488281 282.785156 C 192.722656 282.675781 192.953125 282.570312 193.179688 282.46875 L 193.199219 282.488281 C 193.234375 282.523438 193.269531 282.558594 193.296875 282.589844 L 193.480469 282.792969 C 193.605469 282.925781 193.726562 283.058594 193.847656 283.199219 C 193.96875 283.339844 194.09375 283.476562 194.210938 283.621094 L 194.558594 284.046875 C 194.671875 284.195312 194.785156 284.339844 194.898438 284.484375 C 194.957031 284.558594 195.011719 284.632812 195.066406 284.707031 L 195.230469 284.929688 C 195.660156 285.519531 196.0625 286.132812 196.433594 286.757812 C 196.828125 287.421875 197.183594 288.101562 197.496094 288.789062 C 197.046875 289.035156 196.601562 289.296875 196.160156 289.578125 C 195.636719 289.914062 195.121094 290.277344 194.628906 290.683594 C 194.140625 291.09375 193.675781 291.546875 193.265625 292.054688 C 192.859375 292.566406 192.511719 293.132812 192.25 293.726562 C 191.984375 294.320312 191.804688 294.941406 191.691406 295.546875 C 191.574219 296.160156 191.515625 296.757812 191.488281 297.347656 C 191.488281 297.421875 191.484375 297.496094 191.480469 297.570312 L 191.476562 297.683594 C 191.476562 297.71875 191.476562 297.753906 191.476562 297.789062 C 191.476562 297.929688 191.472656 298.066406 191.472656 298.203125 C 191.46875 298.472656 191.460938 298.738281 191.457031 299.003906 C 191.453125 299.066406 191.453125 299.132812 191.449219 299.195312 C 191.445312 299.261719 191.441406 299.328125 191.4375 299.390625 C 191.425781 299.519531 191.417969 299.648438 191.40625 299.777344 C 191.398438 299.902344 191.386719 300.03125 191.378906 300.15625 C 191.363281 300.28125 191.347656 300.40625 191.332031 300.53125 C 191.316406 300.652344 191.304688 300.777344 191.289062 300.898438 C 191.28125 300.960938 191.273438 301.023438 191.265625 301.082031 C 191.257812 301.144531 191.246094 301.203125 191.238281 301.265625 C 191.199219 301.503906 191.160156 301.742188 191.121094 301.972656 C 191.082031 302.207031 191.035156 302.433594 190.988281 302.660156 C 190.964844 302.769531 190.945312 302.882812 190.921875 302.992188 C 190.894531 303.101562 190.871094 303.207031 190.84375 303.316406 C 190.65625 304.175781 190.429688 304.953125 190.222656 305.636719 C 190.058594 306.175781 189.898438 306.65625 189.738281 307.066406 C 190.273438 307.003906 190.796875 306.914062 191.316406 306.808594 C 191.34375 306.722656 191.371094 306.636719 191.394531 306.546875 C 191.445312 306.382812 191.496094 306.207031 191.546875 306.03125 C 191.75 305.316406 191.96875 304.507812 192.160156 303.609375 C 192.1875 303.5 192.210938 303.386719 192.238281 303.273438 C 192.261719 303.15625 192.28125 303.042969 192.304688 302.925781 C 192.347656 302.691406 192.398438 302.453125 192.441406 302.207031 C 192.480469 301.964844 192.519531 301.714844 192.5625 301.460938 C 192.570312 301.398438 192.582031 301.335938 192.59375 301.269531 C 192.601562 301.207031 192.609375 301.144531 192.617188 301.078125 C 192.632812 300.949219 192.648438 300.820312 192.664062 300.6875 C 192.679688 300.554688 192.695312 300.425781 192.714844 300.292969 C 192.722656 300.15625 192.734375 300.023438 192.746094 299.886719 C 192.757812 299.75 192.769531 299.613281 192.78125 299.476562 C 192.785156 299.410156 192.792969 299.339844 192.796875 299.269531 C 192.800781 299.203125 192.800781 299.132812 192.804688 299.0625 C 192.8125 298.785156 192.824219 298.503906 192.832031 298.222656 C 192.835938 298.085938 192.835938 297.945312 192.839844 297.808594 C 192.839844 297.773438 192.839844 297.738281 192.84375 297.707031 L 192.847656 297.609375 C 192.851562 297.542969 192.855469 297.476562 192.859375 297.410156 C 192.917969 296.347656 193.09375 295.265625 193.535156 294.304688 C 193.757812 293.824219 194.039062 293.371094 194.378906 292.953125 C 194.71875 292.539062 195.117188 292.15625 195.550781 291.800781 C 196.316406 291.183594 197.183594 290.652344 198.074219 290.175781 C 198.128906 290.320312 198.183594 290.464844 198.234375 290.609375 C 198.464844 291.261719 198.65625 291.914062 198.820312 292.5625 C 198.980469 293.207031 199.109375 293.847656 199.210938 294.476562 C 199.3125 295.105469 199.378906 295.722656 199.425781 296.320312 C 199.472656 296.921875 199.492188 297.503906 199.496094 298.0625 C 199.5 299.179688 199.433594 300.207031 199.324219 301.113281 C 199.230469 301.894531 199.117188 302.585938 198.996094 303.175781 C 199.371094 302.875 199.734375 302.558594 200.082031 302.230469 C 200.152344 301.925781 200.222656 301.605469 200.285156 301.261719 C 200.460938 300.328125 200.609375 299.261719 200.667969 298.089844 C 200.730469 296.917969 200.707031 295.636719 200.550781 294.292969 C 200.472656 293.621094 200.363281 292.933594 200.214844 292.238281 C 200.066406 291.542969 199.882812 290.835938 199.652344 290.132812 C 199.585938 289.917969 199.515625 289.703125 199.4375 289.492188 C 200.136719 289.15625 200.839844 288.847656 201.53125 288.546875 L 201.578125 288.523438 C 201.585938 288.523438 201.59375 288.523438 201.605469 288.523438 C 201.640625 288.523438 201.6875 288.535156 201.742188 288.554688 C 201.796875 288.578125 201.859375 288.613281 201.921875 288.660156 C 201.988281 288.707031 202.050781 288.769531 202.117188 288.835938 C 202.246094 288.976562 202.371094 289.152344 202.484375 289.339844 C 202.597656 289.53125 202.699219 289.738281 202.792969 289.945312 C 202.839844 290.054688 202.882812 290.160156 202.925781 290.269531 C 202.972656 290.386719 203.015625 290.503906 203.0625 290.621094 C 203.109375 290.742188 203.164062 290.871094 203.21875 290.992188 C 203.273438 291.113281 203.324219 291.230469 203.382812 291.347656 C 203.605469 291.8125 203.847656 292.25 204.113281 292.652344 C 204.378906 293.058594 204.660156 293.433594 204.964844 293.769531 C 205.027344 293.84375 205.09375 293.910156 205.160156 293.980469 C 205.328125 293.398438 205.46875 292.804688 205.582031 292.203125 C 205.507812 292.09375 205.433594 291.980469 205.363281 291.863281 " fill-opacity="1" fill-rule="nonzero"/></g><g clip-path="url(#bc5a39180b)"><path fill="#103a58" d="M 231.421875 176.5 C 231.300781 182.023438 230.402344 187.425781 228.742188 192.546875 C 228.511719 193.269531 228.273438 193.976562 228.03125 194.660156 C 225.6875 201.339844 222.5 207.691406 218.570312 213.535156 C 208.863281 227.96875 196.558594 236.488281 187.445312 241.234375 C 185.007812 239.964844 182.339844 238.421875 179.554688 236.570312 C 175.101562 224.949219 173.164062 194.539062 190.351562 182.445312 C 189.261719 182.851562 188.175781 183.285156 187.109375 183.75 C 181.078125 186.359375 175.4375 189.851562 170.304688 193.921875 C 167.742188 195.964844 165.324219 198.179688 163 200.519531 C 160.679688 202.855469 158.488281 205.300781 156.464844 207.855469 L 149.992188 202.335938 C 149.980469 202.316406 149.972656 202.296875 149.960938 202.273438 C 152.371094 199.617188 154.925781 197.117188 157.589844 194.765625 C 160.257812 192.414062 163.058594 190.167969 166 188.128906 C 171.886719 184.0625 178.242188 180.6875 184.96875 178.289062 C 191.621094 175.917969 198.664062 174.464844 205.824219 174.59375 C 205.71875 174.652344 205.613281 174.707031 205.507812 174.769531 C 204.046875 175.648438 202.628906 176.589844 201.289062 177.621094 C 201.203125 177.691406 201.109375 177.753906 201.023438 177.828125 C 200.109375 178.550781 199.226562 179.3125 198.378906 180.101562 C 197.917969 180.53125 197.464844 180.96875 197.027344 181.421875 C 194.550781 183.992188 192.417969 186.832031 190.683594 189.871094 C 189.816406 191.386719 189.039062 192.949219 188.363281 194.546875 C 187.695312 196.144531 187.097656 197.773438 186.679688 199.441406 C 187.335938 197.855469 188.152344 196.34375 189.03125 194.886719 C 189.914062 193.429688 190.886719 192.035156 191.929688 190.710938 C 194.011719 188.046875 196.414062 185.679688 199.023438 183.660156 C 200.335938 182.648438 201.714844 181.753906 203.125 180.929688 C 204.332031 180.234375 205.585938 179.632812 206.851562 179.085938 C 207.070312 178.992188 207.289062 178.894531 207.507812 178.804688 C 209 178.210938 210.53125 177.71875 212.078125 177.324219 C 213.566406 176.941406 215.074219 176.660156 216.589844 176.457031 C 216.652344 176.480469 216.71875 176.5 216.78125 176.523438 C 217.648438 176.847656 218.507812 177.21875 219.332031 177.636719 C 219.75 177.84375 220.148438 178.09375 220.558594 178.328125 L 221.164062 178.691406 C 221.359375 178.824219 221.566406 178.953125 221.75 179.09375 L 222.867188 179.925781 C 223.246094 180.242188 223.621094 180.5625 223.949219 180.878906 C 223.960938 180.890625 223.976562 180.90625 223.988281 180.917969 C 224.277344 179.957031 224.519531 178.988281 224.691406 178.011719 C 224.867188 177.085938 224.945312 176.15625 224.988281 175.230469 C 224.980469 174.769531 225.011719 174.304688 224.960938 173.847656 L 224.914062 173.15625 L 224.8125 172.476562 C 224.785156 172.25 224.742188 172.023438 224.6875 171.800781 C 224.632812 171.578125 224.589844 171.355469 224.53125 171.132812 C 224.386719 170.703125 224.28125 170.253906 224.089844 169.835938 C 223.773438 168.976562 223.304688 168.183594 222.792969 167.414062 C 221.730469 165.898438 220.320312 164.59375 218.71875 163.558594 C 217.121094 162.519531 215.328125 161.746094 213.464844 161.183594 C 211.597656 160.613281 209.65625 160.273438 207.691406 160.074219 C 203.761719 159.695312 199.757812 159.941406 195.824219 160.578125 C 199.707031 159.683594 207.375 157.988281 210.503906 159.03125 C 209.417969 157.363281 208.628906 156.210938 207.320312 154.574219 C 206.898438 154.050781 206.464844 153.527344 206.023438 153.011719 C 204.695312 151.457031 203.269531 149.929688 201.75 148.445312 C 200.910156 147.621094 200.039062 146.8125 199.144531 146.019531 C 198.648438 145.574219 198.136719 145.136719 197.621094 144.703125 C 209.492188 145.914062 221.167969 149.222656 231.914062 154.453125 Z M 144.519531 186.261719 C 144.046875 183.859375 143.730469 181.417969 143.574219 178.945312 C 145.945312 177.671875 148.355469 176.5 150.785156 175.425781 C 155.035156 173.558594 159.363281 171.9375 163.777344 170.742188 C 159.863281 173.082031 156.210938 175.773438 152.742188 178.621094 C 149.839844 181.035156 147.074219 183.574219 144.519531 186.261719 Z M 178.644531 157.992188 C 181.472656 157.082031 184.539062 157.230469 187.269531 158.410156 L 191.785156 160.363281 L 183.851562 162.914062 C 181.019531 163.828125 177.953125 163.679688 175.226562 162.5 L 170.707031 160.546875 Z M 236.921875 149.335938 C 221.949219 141.648438 205.164062 137.511719 188.375 137.367188 C 166.347656 137.179688 148.804688 143.773438 137.96875 149.335938 L 136.070312 150.308594 L 136.117188 152.441406 C 136.207031 156.707031 136.304688 160.96875 136.398438 165.230469 L 136.65625 176.648438 C 136.789062 182.832031 137.800781 188.886719 139.65625 194.648438 C 141.585938 200.621094 144.117188 206.351562 147.199219 211.753906 C 148.285156 213.65625 149.441406 215.523438 150.664062 217.339844 C 156.671875 226.273438 163.59375 233.101562 170.257812 238.277344 C 175.902344 242.65625 181.363281 245.847656 185.933594 248.109375 L 187.445312 248.859375 L 188.953125 248.109375 C 198.925781 243.175781 213.132812 233.828125 224.222656 217.339844 C 228.476562 211.015625 231.917969 204.148438 234.460938 196.921875 C 234.71875 196.191406 234.976562 195.425781 235.230469 194.648438 C 237.085938 188.890625 238.097656 182.832031 238.234375 176.652344 L 238.820312 150.308594 L 236.921875 149.335938 " fill-opacity="1" fill-rule="nonzero"/></g><g clip-path="url(#ef36243c1d)"><path fill="#0b7abe" d="M 285.417969 220.339844 L 289.589844 222.84375 L 288.488281 218.125 L 292.167969 214.957031 L 287.316406 214.539062 L 285.417969 210.09375 L 283.523438 214.539062 L 278.667969 214.957031 L 282.351562 218.125 L 281.25 222.84375 Z M 285.417969 220.339844 " fill-opacity="1" fill-rule="nonzero"/></g><g clip-path="url(#6aef772c66)"><path fill="#0b7abe" d="M 89.5 220.339844 L 93.671875 222.84375 L 92.566406 218.125 L 96.25 214.957031 L 91.394531 214.539062 L 89.5 210.09375 L 87.601562 214.539062 L 82.75 214.957031 L 86.433594 218.125 L 85.328125 222.84375 Z M 89.5 220.339844 " fill-opacity="1" fill-rule="nonzero"/></g><g clip-path="url(#41eebb3389)"><path fill="#0b7abe" d="M 275.628906 239.417969 L 279.800781 241.921875 L 278.695312 237.203125 L 282.378906 234.03125 L 277.523438 233.617188 L 275.628906 229.171875 L 273.730469 233.617188 L 268.878906 234.03125 L 272.5625 237.203125 L 271.457031 241.921875 Z M 275.628906 239.417969 " fill-opacity="1" fill-rule="nonzero"/></g><g clip-path="url(#b67bcea859)"><path fill="#0b7abe" d="M 99.289062 239.417969 L 103.460938 241.921875 L 102.359375 237.203125 L 106.039062 234.03125 L 101.1875 233.617188 L 99.289062 229.171875 L 97.394531 233.617188 L 92.539062 234.03125 L 96.222656 237.203125 L 95.117188 241.921875 Z M 99.289062 239.417969 " fill-opacity="1" fill-rule="nonzero"/></g><g clip-path="url(#5c074d4e85)"><path fill="#0b7abe" d="M 262.597656 256.425781 L 266.765625 258.929688 L 265.664062 254.210938 L 269.34375 251.039062 L 264.492188 250.625 L 262.597656 246.179688 L 260.699219 250.625 L 255.847656 251.039062 L 259.527344 254.210938 L 258.425781 258.929688 Z M 262.597656 256.425781 " fill-opacity="1" fill-rule="nonzero"/></g><g clip-path="url(#db0cb31286)"><path fill="#0b7abe" d="M 112.324219 256.425781 L 116.492188 258.929688 L 115.390625 254.210938 L 119.070312 251.039062 L 114.21875 250.625 L 112.324219 246.179688 L 110.425781 250.625 L 105.574219 251.039062 L 109.253906 254.210938 L 108.152344 258.929688 Z M 112.324219 256.425781 " fill-opacity="1" fill-rule="nonzero"/></g><g clip-path="url(#ae96df8556)"><path fill="#0b7abe" d="M 246.703125 271.570312 L 250.875 274.074219 L 249.773438 269.359375 L 253.453125 266.1875 L 248.601562 265.769531 L 246.703125 261.324219 L 244.808594 265.769531 L 239.957031 266.1875 L 243.636719 269.359375 L 242.535156 274.074219 Z M 246.703125 271.570312 " fill-opacity="1" fill-rule="nonzero"/></g><g clip-path="url(#7d4971407e)"><path fill="#0b7abe" d="M 128.214844 271.570312 L 132.386719 274.074219 L 131.28125 269.359375 L 134.964844 266.1875 L 130.109375 265.769531 L 128.214844 261.324219 L 126.316406 265.769531 L 121.464844 266.1875 L 125.144531 269.359375 L 124.042969 274.074219 Z M 128.214844 271.570312 " fill-opacity="1" fill-rule="nonzero"/></g><g clip-path="url(#ff74724cc0)"><path fill="#0b7abe" d="M 229.097656 286.148438 L 233.269531 288.652344 L 232.167969 283.933594 L 235.847656 280.765625 L 230.996094 280.347656 L 229.097656 275.902344 L 227.203125 280.347656 L 222.347656 280.765625 L 226.03125 283.933594 L 224.925781 288.652344 Z M 229.097656 286.148438 " fill-opacity="1" fill-rule="nonzero"/></g><g clip-path="url(#fb0f411efe)"><path fill="#0b7abe" d="M 145.820312 286.148438 L 149.992188 288.652344 L 148.886719 283.933594 L 152.570312 280.765625 L 147.714844 280.347656 L 145.820312 275.902344 L 143.921875 280.347656 L 139.070312 280.765625 L 142.753906 283.933594 L 141.648438 288.652344 Z M 145.820312 286.148438 " fill-opacity="1" fill-rule="nonzero"/></g><g fill="#103a58" fill-opacity="1"><g transform="translate(113.717005, 136.158158)"><g><path d="M -2.15625 -23.40625 L -5.691406 -26.5 L -14.902344 -15.992188 L 1.453125 -1.65625 L 10.664062 -12.167969 L 7.132812 -15.261719 L 1.476562 -8.808594 L -1.402344 -11.332031 L 3.449219 -16.871094 L -0.0820312 -19.964844 L -4.9375 -14.429688 L -7.8125 -16.949219 Z M -2.15625 -23.40625 "/></g></g></g><g fill="#103a58" fill-opacity="1"><g transform="translate(122.32287, 125.450773)"><g><path d="M 13.625 -10.820312 L 18.1875 -14.441406 L -2.167969 -26.046875 L -6.914062 -22.277344 L -0.226562 0.179688 L 4.335938 -3.445312 L 3.027344 -7.328125 L 10.136719 -12.972656 Z M 1.558594 -11.789062 L -1.140625 -19.902344 L 6.148438 -15.433594 Z M 1.558594 -11.789062 "/></g></g></g><g fill="#103a58" fill-opacity="1"><g transform="translate(136.753132, 113.388815)"><g><path d="M 6.300781 -17.21875 L 8.390625 -13.011719 L 11.636719 -14.628906 L 12.039062 -13.824219 C 11.605469 -12.085938 10.554688 -10.816406 8.890625 -9.992188 C 7.386719 -9.242188 5.867188 -9.101562 4.378906 -9.625 C 2.875 -10.109375 1.75 -11.136719 1 -12.640625 C 0.25 -14.144531 0.125 -15.636719 0.632812 -17.152344 C 1.128906 -18.632812 2.144531 -19.78125 3.648438 -20.53125 C 5.46875 -21.433594 7.21875 -21.429688 8.941406 -20.570312 L 11.285156 -25.234375 C 9.730469 -26.015625 8.109375 -26.410156 6.347656 -26.4375 C 4.597656 -26.441406 2.910156 -26.058594 1.300781 -25.257812 C -1.476562 -23.875 -3.351562 -21.714844 -4.328125 -18.796875 C -5.308594 -15.882812 -5.09375 -13.042969 -3.726562 -10.289062 C -2.34375 -7.511719 -0.207031 -5.628906 2.707031 -4.648438 C 5.621094 -3.671875 8.464844 -3.882812 11.242188 -5.265625 C 13.316406 -6.296875 14.644531 -7.671875 15.242188 -9.394531 L 16.433594 -8.171875 L 19.886719 -9.890625 L 14.269531 -21.183594 Z M 6.300781 -17.21875 "/></g></g></g><g fill="#103a58" fill-opacity="1"><g transform="translate(154.681599, 104.563397)"><g><path d="M 5.75 -6.640625 L 0.832031 -22.964844 L -4.332031 -21.40625 L 1.941406 -0.585938 L 13.796875 -4.15625 L 12.441406 -8.65625 Z M 5.75 -6.640625 "/></g></g></g><g fill="#103a58" fill-opacity="1"><g transform="translate(165.255256, 101.026919)"><g><path d="M 13.378906 -19.324219 L 12.660156 -23.964844 L -1.148438 -21.828125 L 2.175781 -0.335938 L 15.988281 -2.476562 L 15.269531 -7.117188 L 6.789062 -5.804688 L 6.203125 -9.585938 L 13.480469 -10.714844 L 12.761719 -15.355469 L 5.484375 -14.226562 L 4.898438 -18.011719 Z M 13.378906 -19.324219 "/></g></g></g><g fill="#103a58" fill-opacity="1"><g transform="translate(179.717653, 98.901352)"><g/></g></g><g fill="#103a58" fill-opacity="1"><g transform="translate(183.662406, 97.486536)"><g><path d="M 27.21875 -18.660156 L 22.050781 -4.703125 L 19.902344 -19.53125 L 14.980469 -20.117188 L 9.410156 -6.207031 L 7.667969 -20.988281 L 1.996094 -21.664062 L 5.125 0.609375 L 11.371094 1.355469 L 16.554688 -12.25 L 18.367188 2.1875 L 24.617188 2.929688 L 32.890625 -17.984375 Z M 27.21875 -18.660156 "/></g></g></g><g fill="#103a58" fill-opacity="1"><g transform="translate(209.544643, 101.128)"><g><path d="M 2.109375 0.640625 L 7.269531 2.210938 L 13.59375 -18.59375 L 8.433594 -20.164062 Z M 2.109375 0.640625 "/></g></g></g><g fill="#103a58" fill-opacity="1"><g transform="translate(215.882382, 102.168702)"><g><path d="M 25.3125 -11.953125 L 19.332031 0.484375 L 16.324219 -16.277344 L 11.257812 -18.714844 L 1.828125 0.878906 L 6.6875 3.21875 L 12.695312 -9.273438 L 15.652344 7.527344 L 20.746094 9.980469 L 30.171875 -9.617188 Z M 25.3125 -11.953125 "/></g></g></g><g fill="#103a58" fill-opacity="1"><g transform="translate(234.785109, 110.825782)"><g><path d="M 18.261719 -1.65625 L 15.351562 2.03125 L 18.195312 4.277344 L 17.640625 4.984375 C 15.882812 5.335938 14.289062 4.925781 12.832031 3.773438 C 11.511719 2.730469 10.738281 1.417969 10.574219 -0.152344 C 10.367188 -1.714844 10.816406 -3.171875 11.859375 -4.492188 C 12.898438 -5.8125 14.195312 -6.5625 15.78125 -6.75 C 17.328125 -6.933594 18.804688 -6.507812 20.125 -5.464844 C 21.71875 -4.207031 22.460938 -2.625 22.417969 -0.699219 L 27.636719 -0.570312 C 27.679688 -2.308594 27.34375 -3.941406 26.617188 -5.550781 C 25.875 -7.132812 24.804688 -8.496094 23.394531 -9.609375 C 20.957031 -11.53125 18.203125 -12.300781 15.152344 -11.941406 C 12.097656 -11.582031 9.621094 -10.175781 7.714844 -7.761719 C 5.792969 -5.328125 5 -2.589844 5.359375 0.464844 C 5.71875 3.515625 7.125 5.996094 9.5625 7.917969 C 11.382812 9.351562 13.1875 9.964844 15.003906 9.773438 L 14.40625 11.371094 L 17.433594 13.761719 L 25.25 3.859375 Z M 18.261719 -1.65625 "/></g></g></g><g fill="#103a58" fill-opacity="1"><g transform="translate(250.378412, 123.048871)"><g><path d="M 5.703125 6.953125 C 7.117188 8.566406 8.738281 9.535156 10.609375 9.867188 C 12.476562 10.195312 14.171875 9.710938 15.65625 8.410156 C 16.617188 7.570312 17.273438 6.648438 17.644531 5.667969 C 18.019531 4.683594 18.117188 3.785156 17.992188 2.9375 C 17.820312 2.082031 17.609375 1.226562 17.316406 0.363281 C 17.007812 -0.519531 16.707031 -1.300781 16.382812 -1.976562 C 16.039062 -2.679688 15.855469 -3.328125 15.816406 -3.949219 C 15.753906 -4.546875 15.949219 -5.027344 16.363281 -5.390625 C 16.753906 -5.734375 17.132812 -5.875 17.582031 -5.804688 C 18.007812 -5.714844 18.402344 -5.480469 18.746094 -5.089844 C 19.492188 -4.238281 19.777344 -2.945312 19.640625 -1.207031 L 24.382812 -0.8125 C 24.527344 -2.097656 24.425781 -3.359375 24.078125 -4.632812 C 23.714844 -5.933594 23.109375 -7.0625 22.230469 -8.0625 C 20.96875 -9.503906 19.445312 -10.363281 17.679688 -10.707031 C 15.894531 -11.03125 14.214844 -10.484375 12.644531 -9.109375 C 11.597656 -8.191406 10.933594 -7.1875 10.695312 -6.054688 C 10.453125 -4.917969 10.488281 -3.867188 10.832031 -2.859375 C 11.136719 -1.851562 11.484375 -0.882812 11.914062 0.046875 C 12.347656 0.980469 12.617188 1.820312 12.773438 2.613281 C 12.925781 3.402344 12.761719 4.007812 12.28125 4.429688 C 11.890625 4.773438 11.410156 4.882812 10.925781 4.769531 C 10.417969 4.675781 9.925781 4.335938 9.429688 3.765625 C 8.777344 3.027344 8.398438 2.238281 8.292969 1.371094 C 8.144531 0.496094 8.285156 -0.355469 8.691406 -1.214844 L 3.832031 -2.664062 C 3.21875 -1.164062 3.09375 0.449219 3.390625 2.195312 C 3.683594 3.941406 4.460938 5.535156 5.703125 6.953125 Z M 5.703125 6.953125 "/></g></g></g><g fill="#ffffff" fill-opacity="1"><g transform="translate(71.573314, 191.999987)"><g><path d="M 6.515625 -7.34375 L 6.515625 -9 L 0.984375 -9 L 0.984375 0 L 6.515625 0 L 6.515625 -1.65625 L 2.855469 -1.65625 L 2.855469 -3.671875 L 6.011719 -3.671875 L 6.011719 -5.328125 L 2.855469 -5.328125 L 2.855469 -7.34375 Z M 6.515625 -7.34375 "/></g></g></g><g fill="#ffffff" fill-opacity="1"><g transform="translate(78.629328, 191.999987)"><g><path d="M 3.613281 0.121094 C 4.464844 0.121094 5.183594 -0.121094 5.773438 -0.601562 C 6.359375 -1.078125 6.660156 -1.714844 6.660156 -2.519531 C 6.660156 -2.964844 6.574219 -3.359375 6.433594 -3.695312 C 6.277344 -4.03125 6.070312 -4.296875 5.832031 -4.488281 C 5.578125 -4.679688 5.304688 -4.859375 5.015625 -5.003906 C 4.714844 -5.148438 4.414062 -5.269531 4.128906 -5.363281 C 3.828125 -5.460938 3.550781 -5.566406 3.3125 -5.675781 C 3.058594 -5.773438 2.855469 -5.902344 2.710938 -6.070312 C 2.554688 -6.226562 2.484375 -6.421875 2.484375 -6.636719 C 2.484375 -6.910156 2.566406 -7.128906 2.761719 -7.273438 C 2.941406 -7.414062 3.179688 -7.488281 3.46875 -7.488281 C 3.996094 -7.488281 4.5 -7.222656 4.957031 -6.707031 L 6.191406 -7.859375 C 5.855469 -8.242188 5.460938 -8.542969 4.980469 -8.773438 C 4.5 -9 3.996094 -9.121094 3.46875 -9.121094 C 2.699219 -9.121094 2.039062 -8.890625 1.488281 -8.4375 C 0.9375 -7.980469 0.660156 -7.332031 0.660156 -6.515625 C 0.660156 -5.953125 0.804688 -5.484375 1.09375 -5.113281 C 1.378906 -4.726562 1.726562 -4.453125 2.136719 -4.273438 C 2.542969 -4.09375 2.964844 -3.9375 3.371094 -3.792969 C 3.78125 -3.648438 4.128906 -3.480469 4.414062 -3.289062 C 4.703125 -3.085938 4.847656 -2.832031 4.847656 -2.53125 C 4.847656 -2.242188 4.726562 -2.015625 4.511719 -1.847656 C 4.296875 -1.679688 3.996094 -1.609375 3.625 -1.609375 C 3.203125 -1.609375 2.832031 -1.714844 2.519531 -1.933594 C 2.195312 -2.148438 1.957031 -2.4375 1.800781 -2.808594 L 0.277344 -1.859375 C 0.5625 -1.273438 0.996094 -0.792969 1.597656 -0.433594 C 2.195312 -0.0585938 2.867188 0.121094 3.613281 0.121094 Z M 3.613281 0.121094 "/></g></g></g><g fill="#ffffff" fill-opacity="1"><g transform="translate(85.637346, 191.999987)"><g><path d="M 6.5625 -9 L 0.121094 -9 L 0.121094 -7.332031 L 2.410156 -7.332031 L 2.410156 0 L 4.273438 0 L 4.273438 -7.332031 L 6.5625 -7.332031 Z M 6.5625 -9 "/></g></g></g><g fill="#ffffff" fill-opacity="1"><g transform="translate(92.321359, 191.999987)"><g><path d="M 0.910156 0 L 3.816406 0 C 5.21875 0 6.335938 -0.421875 7.164062 -1.285156 C 7.980469 -2.136719 8.398438 -3.203125 8.398438 -4.5 C 8.398438 -5.785156 7.980469 -6.851562 7.164062 -7.714844 C 6.335938 -8.566406 5.21875 -9 3.816406 -9 L 0.910156 -9 Z M 2.773438 -1.667969 L 2.773438 -7.332031 L 3.730469 -7.332031 C 4.570312 -7.332031 5.242188 -7.066406 5.722656 -6.539062 C 6.203125 -6.011719 6.457031 -5.328125 6.457031 -4.5 C 6.457031 -3.660156 6.203125 -2.988281 5.722656 -2.460938 C 5.242188 -1.933594 4.570312 -1.667969 3.730469 -1.667969 Z M 2.773438 -1.667969 "/></g></g></g><g fill="#ffffff" fill-opacity="1"><g transform="translate(275.376989, 191.999987)"><g><path d="M 2.976562 -1.621094 C 3.71875 -2.410156 4.285156 -3.011719 4.644531 -3.421875 C 5.003906 -3.816406 5.328125 -4.210938 5.605469 -4.621094 C 5.878906 -5.015625 6.058594 -5.351562 6.132812 -5.628906 C 6.203125 -5.890625 6.253906 -6.214844 6.253906 -6.574219 C 6.238281 -7.320312 5.976562 -7.933594 5.449219 -8.410156 C 4.921875 -8.890625 4.273438 -9.132812 3.492188 -9.132812 C 2.652344 -9.132812 1.933594 -8.855469 1.355469 -8.328125 C 0.769531 -7.789062 0.503906 -7.117188 0.574219 -6.300781 L 2.363281 -6.300781 C 2.316406 -6.660156 2.386719 -6.960938 2.59375 -7.175781 C 2.796875 -7.390625 3.070312 -7.5 3.40625 -7.5 C 3.695312 -7.5 3.9375 -7.402344 4.152344 -7.234375 C 4.367188 -7.054688 4.476562 -6.78125 4.476562 -6.40625 C 4.476562 -6.144531 4.390625 -5.890625 4.246094 -5.628906 C 4.105469 -5.363281 3.769531 -4.933594 3.238281 -4.320312 C 2.710938 -3.707031 1.8125 -2.722656 0.5625 -1.367188 L 0.5625 0 L 6.421875 0 L 6.421875 -1.621094 Z M 2.976562 -1.621094 "/></g></g></g><g fill="#ffffff" fill-opacity="1"><g transform="translate(282.289003, 191.999987)"><g><path d="M 3.875 0.121094 C 4.894531 0.121094 5.710938 -0.289062 6.3125 -1.128906 C 6.910156 -1.96875 7.222656 -3.085938 7.222656 -4.5 C 7.222656 -5.902344 6.910156 -7.019531 6.3125 -7.859375 C 5.710938 -8.699219 4.894531 -9.121094 3.875 -9.121094 C 2.84375 -9.121094 2.015625 -8.699219 1.414062 -7.871094 C 0.816406 -7.03125 0.515625 -5.914062 0.515625 -4.5 C 0.515625 -3.085938 0.816406 -1.957031 1.414062 -1.128906 C 2.015625 -0.289062 2.84375 0.121094 3.875 0.121094 Z M 3.875 -1.597656 C 3.421875 -1.597656 3.058594 -1.859375 2.773438 -2.398438 C 2.484375 -2.929688 2.339844 -3.636719 2.339844 -4.5 C 2.339844 -5.363281 2.472656 -6.058594 2.761719 -6.601562 C 3.046875 -7.128906 3.421875 -7.402344 3.875 -7.402344 C 4.320312 -7.402344 4.679688 -7.128906 4.96875 -6.601562 C 5.257812 -6.058594 5.398438 -5.363281 5.398438 -4.5 C 5.398438 -3.636719 5.257812 -2.941406 4.96875 -2.398438 C 4.679688 -1.859375 4.320312 -1.597656 3.875 -1.597656 Z M 3.875 -1.597656 "/></g></g></g><g fill="#ffffff" fill-opacity="1"><g transform="translate(290.029019, 191.999987)"><g><path d="M 1.703125 0 L 3.515625 0 L 3.515625 -9 L 0.433594 -9 L 0.433594 -7.378906 L 1.703125 -7.378906 Z M 1.703125 0 "/></g></g></g><g fill="#ffffff" fill-opacity="1"><g transform="translate(294.457024, 191.999987)"><g><path d="M 5.472656 -5.003906 C 5.976562 -5.425781 6.238281 -6 6.238281 -6.730469 C 6.238281 -7.402344 5.988281 -7.980469 5.496094 -8.4375 C 4.992188 -8.890625 4.367188 -9.121094 3.625 -9.121094 C 2.867188 -9.121094 2.242188 -8.890625 1.753906 -8.4375 C 1.246094 -7.980469 1.007812 -7.402344 1.007812 -6.730469 C 1.007812 -6.011719 1.261719 -5.4375 1.789062 -5.003906 C 1.367188 -4.753906 1.042969 -4.429688 0.816406 -4.03125 C 0.574219 -3.636719 0.46875 -3.191406 0.46875 -2.710938 C 0.46875 -1.894531 0.769531 -1.222656 1.367188 -0.683594 C 1.96875 -0.144531 2.710938 0.121094 3.625 0.121094 C 4.535156 0.121094 5.292969 -0.144531 5.890625 -0.683594 C 6.492188 -1.222656 6.792969 -1.894531 6.792969 -2.710938 C 6.792969 -3.191406 6.671875 -3.636719 6.445312 -4.042969 C 6.203125 -4.441406 5.878906 -4.765625 5.472656 -5.003906 Z M 3.636719 -7.65625 C 3.9375 -7.65625 4.1875 -7.546875 4.390625 -7.34375 C 4.597656 -7.128906 4.703125 -6.875 4.703125 -6.5625 C 4.703125 -6.253906 4.597656 -6 4.390625 -5.796875 C 4.1875 -5.578125 3.9375 -5.484375 3.636719 -5.484375 C 3.324219 -5.484375 3.070312 -5.578125 2.867188 -5.796875 C 2.652344 -6 2.554688 -6.253906 2.554688 -6.5625 C 2.554688 -6.875 2.652344 -7.128906 2.867188 -7.34375 C 3.070312 -7.546875 3.324219 -7.65625 3.636719 -7.65625 Z M 3.625 -1.464844 C 3.238281 -1.464844 2.929688 -1.597656 2.675781 -1.871094 C 2.425781 -2.136719 2.304688 -2.472656 2.304688 -2.855469 C 2.304688 -3.238281 2.425781 -3.550781 2.675781 -3.804688 C 2.929688 -4.054688 3.238281 -4.1875 3.625 -4.1875 C 4.007812 -4.1875 4.320312 -4.054688 4.585938 -3.804688 C 4.835938 -3.550781 4.96875 -3.238281 4.96875 -2.855469 C 4.96875 -2.472656 4.835938 -2.136719 4.585938 -1.871094 C 4.320312 -1.597656 4.007812 -1.464844 3.625 -1.464844 Z M 3.625 -1.464844 "/></g></g></g></svg>