<svg xmlns="http://www.w3.org/2000/svg" xmlns:xlink="http://www.w3.org/1999/xlink" width="27" zoomAndPan="magnify" viewBox="0 0 375 374.999991" height="500" preserveAspectRatio="xMidYMid meet" version="1.0"><defs><clipPath id="c25e3dfefa"><path d="M 4.707031 4.707031 L 369.957031 4.707031 L 369.957031 369.957031 L 4.707031 369.957031 Z M 4.707031 4.707031 " clip-rule="nonzero"/></clipPath></defs><rect x="-37.5" width="450" fill="#ffffff" y="-37.499999" height="449.999989" fill-opacity="1"/><rect x="-37.5" width="450" fill="#ffffff" y="-37.499999" height="449.999989" fill-opacity="1"/><rect x="-37.5" width="450" fill="#ffffff" y="-37.499999" height="449.999989" fill-opacity="1"/><path fill="#a6a6a6" d="M 241.234375 176.027344 C 241.234375 177.09375 241.210938 178.164062 241.15625 179.226562 C 241.105469 180.292969 241.027344 181.359375 240.921875 182.421875 C 240.816406 183.480469 240.6875 184.539062 240.53125 185.597656 C 240.375 186.652344 240.191406 187.703125 239.984375 188.75 C 239.773438 189.796875 239.539062 190.835938 239.28125 191.871094 C 239.023438 192.90625 238.738281 193.9375 238.429688 194.957031 C 238.117188 195.976562 237.785156 196.992188 237.425781 197.996094 C 237.0625 199 236.679688 199.996094 236.273438 200.980469 C 235.863281 201.96875 235.429688 202.945312 234.976562 203.90625 C 234.519531 204.871094 234.039062 205.824219 233.535156 206.765625 C 233.03125 207.707031 232.507812 208.636719 231.957031 209.550781 C 231.410156 210.46875 230.839844 211.367188 230.246094 212.253906 C 229.652344 213.144531 229.039062 214.015625 228.402344 214.871094 C 227.769531 215.730469 227.109375 216.570312 226.433594 217.394531 C 225.757812 218.21875 225.058594 219.027344 224.34375 219.820312 C 223.628906 220.609375 222.890625 221.382812 222.136719 222.136719 C 221.382812 222.890625 220.609375 223.628906 219.820312 224.34375 C 219.027344 225.058594 218.21875 225.757812 217.394531 226.433594 C 216.570312 227.109375 215.730469 227.769531 214.871094 228.402344 C 214.015625 229.039062 213.144531 229.652344 212.253906 230.246094 C 211.367188 230.839844 210.46875 231.410156 209.550781 231.957031 C 208.636719 232.507812 207.707031 233.03125 206.765625 233.535156 C 205.824219 234.039062 204.871094 234.519531 203.90625 234.976562 C 202.945312 235.429688 201.96875 235.863281 200.980469 236.273438 C 199.996094 236.679688 199 237.0625 197.996094 237.425781 C 196.992188 237.785156 195.976562 238.117188 194.957031 238.429688 C 193.9375 238.738281 192.90625 239.023438 191.871094 239.28125 C 190.835938 239.539062 189.796875 239.773438 188.75 239.984375 C 187.703125 240.191406 186.652344 240.375 185.597656 240.53125 C 184.539062 240.6875 183.480469 240.816406 182.421875 240.921875 C 181.359375 241.027344 180.292969 241.105469 179.226562 241.15625 C 178.164062 241.210938 177.097656 241.234375 176.027344 241.234375 C 174.960938 241.234375 173.894531 241.210938 172.828125 241.15625 C 171.761719 241.105469 170.699219 241.027344 169.636719 240.921875 C 168.574219 240.816406 167.515625 240.6875 166.460938 240.53125 C 165.40625 240.375 164.355469 240.191406 163.308594 239.984375 C 162.261719 239.773438 161.21875 239.539062 160.183594 239.28125 C 159.148438 239.023438 158.121094 238.738281 157.101562 238.429688 C 156.078125 238.117188 155.066406 237.785156 154.0625 237.425781 C 153.054688 237.0625 152.0625 236.679688 151.074219 236.273438 C 150.089844 235.863281 149.113281 235.429688 148.148438 234.976562 C 147.183594 234.519531 146.230469 234.039062 145.289062 233.535156 C 144.347656 233.03125 143.421875 232.507812 142.503906 231.957031 C 141.589844 231.410156 140.6875 230.839844 139.800781 230.246094 C 138.914062 229.652344 138.042969 229.039062 137.183594 228.402344 C 136.328125 227.769531 135.488281 227.109375 134.660156 226.433594 C 133.835938 225.757812 133.027344 225.058594 132.238281 224.34375 C 131.449219 223.628906 130.675781 222.890625 129.921875 222.136719 C 129.164062 221.382812 128.429688 220.609375 127.714844 219.820312 C 126.996094 219.027344 126.300781 218.21875 125.621094 217.394531 C 124.945312 216.570312 124.289062 215.730469 123.652344 214.871094 C 123.019531 214.015625 122.402344 213.144531 121.8125 212.253906 C 121.21875 211.367188 120.648438 210.46875 120.097656 209.550781 C 119.550781 208.636719 119.023438 207.707031 118.519531 206.765625 C 118.019531 205.824219 117.539062 204.871094 117.082031 203.90625 C 116.625 202.945312 116.195312 201.96875 115.785156 200.980469 C 115.375 199.996094 114.992188 199 114.632812 197.996094 C 114.273438 196.992188 113.9375 195.976562 113.628906 194.957031 C 113.320312 193.9375 113.035156 192.90625 112.777344 191.871094 C 112.515625 190.835938 112.28125 189.796875 112.074219 188.75 C 111.867188 187.703125 111.683594 186.652344 111.527344 185.597656 C 111.371094 184.539062 111.238281 183.480469 111.136719 182.421875 C 111.03125 181.359375 110.953125 180.292969 110.898438 179.226562 C 110.847656 178.164062 110.820312 177.09375 110.820312 176.027344 C 110.820312 174.960938 110.847656 173.894531 110.898438 172.828125 C 110.953125 171.761719 111.03125 170.699219 111.136719 169.636719 C 111.238281 168.574219 111.371094 167.515625 111.527344 166.460938 C 111.683594 165.40625 111.867188 164.355469 112.074219 163.308594 C 112.28125 162.261719 112.515625 161.21875 112.777344 160.183594 C 113.035156 159.148438 113.320312 158.121094 113.628906 157.101562 C 113.9375 156.078125 114.273438 155.066406 114.632812 154.0625 C 114.992188 153.054688 115.375 152.0625 115.785156 151.074219 C 116.195312 150.089844 116.625 149.113281 117.082031 148.148438 C 117.539062 147.183594 118.019531 146.230469 118.519531 145.289062 C 119.023438 144.347656 119.550781 143.421875 120.097656 142.503906 C 120.648438 141.589844 121.21875 140.6875 121.8125 139.800781 C 122.402344 138.914062 123.019531 138.042969 123.652344 137.183594 C 124.289062 136.328125 124.945312 135.488281 125.621094 134.660156 C 126.300781 133.835938 126.996094 133.027344 127.714844 132.238281 C 128.429688 131.449219 129.164062 130.675781 129.921875 129.921875 C 130.675781 129.164062 131.449219 128.429688 132.238281 127.714844 C 133.027344 126.996094 133.835938 126.300781 134.660156 125.621094 C 135.488281 124.945312 136.328125 124.289062 137.183594 123.652344 C 138.042969 123.019531 138.914062 122.402344 139.800781 121.8125 C 140.6875 121.21875 141.589844 120.648438 142.503906 120.097656 C 143.421875 119.550781 144.347656 119.023438 145.289062 118.519531 C 146.230469 118.019531 147.183594 117.539062 148.148438 117.082031 C 149.113281 116.625 150.089844 116.195312 151.074219 115.785156 C 152.0625 115.375 153.054688 114.992188 154.0625 114.632812 C 155.066406 114.273438 156.078125 113.9375 157.101562 113.628906 C 158.121094 113.320312 159.148438 113.035156 160.183594 112.777344 C 161.21875 112.515625 162.261719 112.28125 163.308594 112.074219 C 164.355469 111.867188 165.40625 111.683594 166.460938 111.527344 C 167.515625 111.371094 168.574219 111.238281 169.636719 111.136719 C 170.699219 111.03125 171.761719 110.953125 172.828125 110.898438 C 173.894531 110.847656 174.960938 110.820312 176.027344 110.820312 C 177.097656 110.820312 178.164062 110.847656 179.226562 110.898438 C 180.292969 110.953125 181.359375 111.03125 182.421875 111.136719 C 183.480469 111.238281 184.539062 111.371094 185.597656 111.527344 C 186.652344 111.683594 187.703125 111.867188 188.75 112.074219 C 189.796875 112.28125 190.835938 112.515625 191.871094 112.777344 C 192.90625 113.035156 193.9375 113.320312 194.957031 113.628906 C 195.976562 113.9375 196.992188 114.273438 197.996094 114.632812 C 199 114.992188 199.996094 115.375 200.980469 115.785156 C 201.96875 116.195312 202.945312 116.625 203.90625 117.082031 C 204.871094 117.539062 205.824219 118.019531 206.765625 118.519531 C 207.707031 119.023438 208.636719 119.550781 209.550781 120.097656 C 210.46875 120.648438 211.367188 121.21875 212.253906 121.8125 C 213.144531 122.402344 214.015625 123.019531 214.871094 123.652344 C 215.730469 124.289062 216.570312 124.945312 217.394531 125.621094 C 218.21875 126.300781 219.027344 126.996094 219.820312 127.714844 C 220.609375 128.429688 221.382812 129.164062 222.136719 129.921875 C 222.890625 130.675781 223.628906 131.449219 224.34375 132.238281 C 225.058594 133.027344 225.757812 133.835938 226.433594 134.660156 C 227.109375 135.488281 227.769531 136.328125 228.402344 137.183594 C 229.039062 138.042969 229.652344 138.914062 230.246094 139.800781 C 230.839844 140.6875 231.410156 141.589844 231.957031 142.503906 C 232.507812 143.421875 233.03125 144.347656 233.535156 145.289062 C 234.039062 146.230469 234.519531 147.183594 234.976562 148.148438 C 235.429688 149.113281 235.863281 150.089844 236.273438 151.074219 C 236.679688 152.0625 237.0625 153.054688 237.425781 154.0625 C 237.785156 155.066406 238.117188 156.078125 238.429688 157.101562 C 238.738281 158.121094 239.023438 159.148438 239.28125 160.183594 C 239.539062 161.21875 239.773438 162.261719 239.984375 163.308594 C 240.191406 164.355469 240.375 165.40625 240.53125 166.460938 C 240.6875 167.515625 240.816406 168.574219 240.921875 169.636719 C 241.027344 170.699219 241.105469 171.761719 241.15625 172.828125 C 241.210938 173.894531 241.234375 174.960938 241.234375 176.027344 Z M 241.234375 176.027344 " fill-opacity="1" fill-rule="nonzero"/><g clip-path="url(#c25e3dfefa)"><path fill="#a6a6a6" d="M 187.332031 4.707031 C 86.46875 4.707031 4.707031 86.46875 4.707031 187.332031 C 4.707031 288.191406 86.46875 369.957031 187.332031 369.957031 C 288.191406 369.957031 369.957031 288.191406 369.957031 187.332031 C 369.957031 86.46875 288.191406 4.707031 187.332031 4.707031 Z M 293.527344 293.527344 C 286.734375 300.316406 275.726562 300.316406 268.933594 293.527344 L 233.359375 257.949219 C 217.164062 269.300781 197.453125 275.980469 176.183594 276.011719 C 121.710938 276.09375 76.9375 232.144531 76.058594 177.683594 C 75.144531 121.152344 121.152344 75.144531 177.683594 76.058594 C 232.144531 76.9375 276.09375 121.710938 276.011719 176.183594 C 275.980469 197.453125 269.300781 217.164062 257.949219 233.355469 L 293.527344 268.933594 C 300.316406 275.726562 300.316406 286.734375 293.527344 293.527344 Z M 293.527344 293.527344 " fill-opacity="1" fill-rule="nonzero"/></g></svg>